<svg fill="none" height="258" viewBox="0 0 1140 258" width="1140" xmlns="http://www.w3.org/2000/svg" xmlns:xlink="http://www.w3.org/1999/xlink"><clipPath id="a"><path d="m0 1.35938h1137.942v255h-1137.942z"/></clipPath><g clip-path="url(#a)"><g fill="#666"><path d="m304.881 164.518c-10.256 0-18.181-1.865-25.64-5.594l3.263-9.324c6.527 3.263 15.85 5.594 24.242 5.594 12.586 0 19.113-5.594 19.113-13.985s-2.797-11.655-19.58-17.715c-17.248-6.06-23.775-12.121-23.775-26.1061 0-13.9854 9.324-25.6399 29.836-25.6399 9.323 0 17.248 1.8648 23.309 5.128l-3.264 8.8574c-6.992-2.7971-14.451-4.6618-20.045-4.6618-13.52 0-18.181 5.5942-18.647 14.4516 0 7.9248 2.797 12.1208 17.714 17.2488 20.978 7.459 25.64 13.985 25.64 26.106.466 14.918-10.722 25.64-32.166 25.64zm62.468 0c-10.256 0-14.918-4.662-14.918-14.918v-39.625l-8.391-.466.466-7.459 7.925-.466 1.399-20.0462 9.323-.9324v20.9786h20.512l-.466 8.391h-19.58v38.693c0 5.128 1.865 6.992 6.527 6.992 4.196 0 7.925-.932 13.053-3.263l2.331 7.459c-5.128 3.263-11.188 4.662-18.181 4.662zm48.949 0c-15.85 0-26.573-7.925-26.573-28.903 0-22.843 11.655-35.43 29.836-35.43 13.519 0 20.978 9.79 20.978 23.309 0 2.797 0 5.594-.466 9.79h-40.092c0 15.85 5.595 22.376 18.648 22.376 6.526 0 13.053-2.331 19.579-6.526l3.263 6.992c-6.526 5.595-14.451 8.392-25.173 8.392zm14.917-40.092c0-9.789-4.195-15.85-12.586-15.85-9.79 0-16.317 5.594-17.715 17.249h30.301zm41.957 22.377c.932 2.797.932 4.662.932 6.06 0-1.864.466-3.729 1.398-6.06l17.715-45.219h10.256l-25.64 62.001h-9.323l-23.309-62.001h11.188zm91.837 8.391.932 7.459c-2.797.932-6.993 1.865-11.188 1.865-7.459 0-10.256-2.797-10.722-8.392-7.925 7.459-12.587 8.858-20.512 8.858-8.858 0-16.316-5.594-16.316-16.783 0-8.857 5.128-14.917 37.294-16.782v-12.121c0-6.992-3.263-9.789-9.324-9.789-6.992 0-14.451 2.797-20.512 7.458l-4.661-6.992c7.925-5.594 15.85-8.858 27.504-8.858 11.189 0 17.249 6.061 17.249 17.715v33.099c0 4.195.932 4.662 5.128 4.662 1.398-.933 3.263-.933 5.128-1.399zm-21.444-17.249c-20.046 1.399-26.573 3.73-26.573 9.324s2.797 9.324 9.324 9.324c4.662 0 10.722-2.797 17.249-8.858zm68.994 26.107v-44.754c0-5.128-1.865-9.789-8.391-9.789-5.128 0-13.053 3.729-20.046 10.722v43.821h-10.722v-62.002l8.857-.933c.933 1.865 1.399 6.061 1.399 10.722 8.391-7.925 16.316-11.188 23.775-11.188 11.655 0 15.384 5.594 15.384 16.783v46.151zm81.581-8.392.933 7.459c-2.797.933-6.993 1.865-11.188 1.865-7.459 0-10.256-2.797-10.723-8.391-7.925 7.459-12.586 8.857-20.511 8.857-8.858 0-16.317-5.594-16.317-16.782 0-8.858 5.128-14.918 37.295-16.783v-12.121c0-6.992-3.264-9.789-9.324-9.789-6.993 0-14.452 2.797-20.512 7.459l-4.662-6.993c7.925-5.594 15.85-8.857 27.505-8.857 11.188 0 17.249 6.06 17.249 17.714v33.099c0 4.196.932 4.662 5.128 4.662 1.398-.933 2.797-.933 5.127-1.399zm-21.444-17.248c-20.045 1.398-26.572 3.729-26.572 9.323s2.797 9.324 9.324 9.324c4.661 0 10.722-2.797 17.248-8.858zm45.686 27.038c-10.256 0-14.918-4.662-14.918-14.918v-39.625l-8.391-.466.466-7.459 7.925-.466 1.399-20.0458 9.323-.9324v20.9782h20.512l-.466 8.391h-19.58v38.693c0 5.128 1.865 6.993 6.527 6.993 4.195 0 7.925-.933 13.053-3.264l2.331 7.459c-5.128 3.264-11.188 4.662-18.181 4.662zm49.881 0c-18.181 0-27.505-9.79-27.505-30.768 0-20.045 11.189-33.565 29.836-33.565 17.715 0 27.038 9.324 27.038 30.768 0 20.046-10.256 33.565-29.369 33.565zm1.399-56.408c-10.723 0-17.715 8.858-17.715 24.708 0 17.715 6.992 23.309 17.248 23.309 11.655 0 17.249-9.324 17.249-24.708 0-13.985-4.662-22.842-16.782-23.309zm95.566 56.408c-23.775 0-36.828-13.053-36.828-44.287 0-29.3692 13.985-48.4826 38.693-48.4826 12.121 0 19.113 1.8647 27.038 5.5942l-3.263 8.8574c-7.459-3.2633-14.918-5.128-24.241-5.128-17.249 0-27.505 13.9854-27.505 37.76 0 27.039 11.188 35.896 27.505 35.896 6.992 0 12.587-1.398 19.113-4.662v-21.444h-20.046l.467-8.391h30.301v34.497c-7.925 6.061-19.113 9.79-31.234 9.79zm79.251-54.077c-1.865 0-2.797 0-3.73 0-6.526 0-8.391 1.399-17.714 18.181v35.896h-10.723v-62.002l8.392-.932c.932 1.865 1.398 9.323 1.398 16.782 6.993-14.451 10.256-16.782 16.783-16.782 2.33 0 5.128.466 6.526.932zm31.7 54.543c-18.181 0-27.505-9.79-27.505-30.768 0-20.045 11.189-33.564 29.836-33.564 17.715 0 27.04 9.323 27.04 30.767 0 19.58-10.258 33.565-29.371 33.565zm1.398-56.407c-10.722 0-17.714 8.857-17.714 24.707 0 17.715 6.992 23.309 17.248 23.309 11.655 0 17.249-9.324 17.249-24.707 0-13.986-4.662-23.309-16.783-23.309zm80.183 55.941c-.93-1.865-1.4-6.06-1.4-9.79-8.39 7.925-15.85 10.256-22.84 10.256-12.12 0-15.85-6.992-15.85-17.715v-45.219l10.72-.466v45.219c0 5.594 2.33 9.324 8.86 9.324 5.13 0 12.12-2.797 19.11-9.79v-44.287l10.72-.466v62.468zm49.88.466c-5.13 0-9.32-.466-12.59-2.331v27.505l-10.72.466v-88.574l8.86-.932c.93 1.864 1.4 5.128 1.4 8.391 5.13-5.128 12.12-8.857 20.04-8.391 14.92 0 23.31 9.789 23.31 30.301 0 18.648-9.79 33.565-30.3 33.565zm3.73-55.475c-6.53 0-12.59 4.196-16.32 7.925v35.896c3.27 1.864 8.4 3.263 13.06 3.263 12.12 0 18.64-8.857 18.64-25.174 0-12.587-4.66-21.91-15.38-21.91z"/><path d="m132.395 144.479c0 20.046-15.85 32.167-41.0237 32.167-12.1206 0-21.9104-2.331-31.234-6.993l-1.3985-.466 5.1279-14.452 1.8648.932c8.3912 3.73 19.1133 6.061 28.4369 6.061 13.0526 0 20.9776-5.594 20.9776-14.452 0-8.391-1.864-12.12-22.3762-19.579-19.1133-6.993-29.3692-13.986-29.3692-32.6328 0-15.8501 9.7897-32.6326 37.2944-32.1664 11.654 0 21.444 2.3309 28.437 6.5265l1.398.9324-4.661 13.9854-1.865-.9324c-7.925-3.2633-16.783-5.128-23.309-5.128-17.7149 0-20.0458 7.9251-20.0458 15.3839 0 8.3914 2.7971 12.5864 20.0458 18.6474 23.775 7.925 31.7 16.316 31.7 32.166zm44.753-23.775-.932 13.519h23.775v22.377c-7.459 3.729-13.519 5.128-20.978 5.128-20.978 0-31.234-13.053-30.768-41.024 0-27.5045 11.188-43.3546 30.768-43.3546 10.256 0 19.113 1.8647 27.971 6.0603l1.864.9324 5.128-13.9854-1.398-.9324c-10.722-5.1279-19.58-6.9927-33.099-6.9927-29.835 0-48.482 22.8428-48.482 59.6714 0 36.828 14.917 54.543 46.151 54.543 13.519 0 27.505-3.73 38.693-11.189l.933-.466v-43.821z"/><path d="m90.9046 21.8713-11.1883-9.3236-14.4515-11.18832c-13.0531 8.39122-25.1737 18.64712-34.9635 30.76782l9.7898 15.8501c-5.5942 7.925-10.256 16.3163-13.9854 25.1737h14.4516c1.8647-4.6618 4.6618-8.8574 6.9927-13.053 10.7221-15.8501 25.6398-29.3693 43.3546-38.2267z"/></g><path d="m92.77 215.804c-4.6618-2.331-8.8574-4.661-13.053-7.458-16.3163-10.723-29.3693-25.174-38.2267-42.889l-9.3236 11.188-11.6545 14.452c8.3912 13.053 18.6472 25.174 30.7678 34.963l15.8501-9.789c7.9251 5.594 16.3163 10.255 25.1737 13.985z" fill="#1a9641"/><path d="m33.0987 141.214c-1.3985-7.458-2.3309-14.917-2.3309-22.842 0-12.121 1.8647-23.7755 5.5942-34.9638l-14.4516 1.8647-18.18097 1.8647c-2.33089 10.256-3.72943 20.5124-3.72943 31.2344 0 5.128.466179 10.256.932358 15.384l17.714842 4.195c1.3985 9.79 4.1956 19.113 7.925 27.971l10.7221-10.722c-1.8647-4.662-2.797-9.324-4.1956-13.986z" fill="#0b4da0"/><path d="m174.817 219.527c-4.661 1.399-9.323 2.797-14.451 3.73-7.459 1.398-14.918 2.331-22.843 2.331-12.121 0-23.775-1.865-34.963-5.594l1.398 14.451 1.865 18.181c10.256 2.331 20.512 3.73 31.234 3.73 5.128 0 10.256-.467 15.384-.933l4.195-18.181c9.79-1.398 19.114-4.195 27.971-7.925z" fill="#ff8001"/><path d="m235.42 163.588c-2.33 4.196-4.661 8.857-7.458 13.053-4.196 6.06-8.858 12.121-14.452 17.715-8.391 8.391-18.181 15.384-28.903 20.512l11.188 9.323 14.452 11.655c8.857-5.594 17.248-12.121 24.707-19.58 3.73-3.729 6.993-7.459 10.256-11.188l-9.79-15.85c5.595-7.925 10.256-16.317 13.986-25.174z" fill="#666"/></g></svg>